<svg width="17" height="13" viewBox="0 0 17 13" fill="none" xmlns="http://www.w3.org/2000/svg">
<path d="M16.2023 7.15742L2.71423 7.15742L6.91076 11.354C7.06024 11.5034 7.14422 11.7062 7.14422 11.9176C7.14422 12.129 7.06024 12.3317 6.91076 12.4812C6.83674 12.5553 6.74884 12.614 6.65211 12.6541C6.55537 12.6942 6.45168 12.7148 6.34696 12.7148C6.24225 12.7148 6.13856 12.6942 6.04182 12.6541C5.94508 12.614 5.85719 12.5553 5.78316 12.4812L0.24015 6.93987C0.164017 6.86381 0.103622 6.77348 0.0624153 6.67407C0.0212089 6.57465 -5.46109e-07 6.46808 -5.55518e-07 6.36046C-5.64926e-07 6.25284 0.0212088 6.14628 0.0624153 6.04686C0.103622 5.94744 0.164017 5.85712 0.24015 5.78105L5.78349 0.239366C5.85729 0.164357 5.94521 0.104701 6.04218 0.0638394C6.13915 0.0229782 6.24325 0.00171988 6.34847 0.00129167C6.4537 0.000862511 6.55797 0.0212721 6.65526 0.0613426C6.75256 0.101413 6.84096 0.160351 6.91537 0.234757C6.98978 0.309163 7.04871 0.397565 7.08879 0.494864C7.12886 0.592162 7.14927 0.696431 7.14884 0.801656C7.14841 0.906882 7.12715 1.01098 7.08629 1.10795C7.04543 1.20492 6.98577 1.29284 6.91076 1.36663L2.71423 5.56317L16.2023 5.56317C16.4137 5.56317 16.6164 5.64715 16.7659 5.79664C16.9154 5.94613 16.9994 6.14888 16.9994 6.36029C16.9994 6.5717 16.9154 6.77446 16.7659 6.92395C16.6164 7.07344 16.4137 7.15742 16.2023 7.15742Z" fill="#04144E"/>
</svg>
