<svg width="17" height="13" viewBox="0 0 17 13" fill="none" xmlns="http://www.w3.org/2000/svg">
<path d="M0.797741 7.15742L14.2858 7.15742L10.0892 11.354C9.93976 11.5034 9.85578 11.7062 9.85578 11.9176C9.85578 12.129 9.93976 12.3317 10.0892 12.4812C10.1633 12.5553 10.2512 12.614 10.3479 12.6541C10.4446 12.6942 10.5483 12.7148 10.653 12.7148C10.7578 12.7148 10.8614 12.6942 10.9582 12.6541C11.0549 12.614 11.1428 12.5553 11.2168 12.4812L16.7598 6.93987C16.836 6.86381 16.8964 6.77348 16.9376 6.67407C16.9788 6.57465 17 6.46808 17 6.36046C17 6.25284 16.9788 6.14628 16.9376 6.04686C16.8964 5.94744 16.836 5.85712 16.7598 5.78105L11.2165 0.239366C11.1427 0.164357 11.0548 0.104701 10.9578 0.0638394C10.8609 0.0229782 10.7568 0.00171988 10.6515 0.00129167C10.5463 0.000862511 10.442 0.0212721 10.3447 0.0613426C10.2474 0.101413 10.159 0.160351 10.0846 0.234757C10.0102 0.309163 9.95129 0.397565 9.91121 0.494864C9.87114 0.592162 9.85073 0.696431 9.85116 0.801656C9.85159 0.906882 9.87285 1.01098 9.91371 1.10795C9.95457 1.20492 10.0142 1.29284 10.0892 1.36663L14.2858 5.56317L0.797742 5.56317C0.586331 5.56317 0.38358 5.64715 0.23409 5.79664C0.0845991 5.94613 0.000616648 6.14888 0.000616629 6.36029C0.000616611 6.5717 0.0845991 6.77446 0.234089 6.92395C0.38358 7.07344 0.586331 7.15742 0.797741 7.15742Z" fill="#04144E"/>
</svg>
