<svg width="20" height="18" viewBox="0 0 20 18" fill="none" xmlns="http://www.w3.org/2000/svg">
<path d="M17.1338 17.7795H2.94512C1.78162 17.7795 0.835938 16.9107 0.835938 15.8417V4.21525C0.835938 3.1463 1.78162 2.27759 2.94512 2.27759H17.1338C18.2973 2.27759 19.243 3.1463 19.243 4.21525V15.8417C19.243 16.9107 18.2973 17.7795 17.1338 17.7795ZM2.94512 3.33454C2.41667 3.33454 1.98638 3.72973 1.98638 4.21525V15.8417C1.98638 16.3272 2.41667 16.7225 2.94512 16.7225H17.1338C17.6622 16.7225 18.0925 16.3272 18.0925 15.8417V4.21525C18.0925 3.72973 17.6622 3.33454 17.1338 3.33454H2.94512Z" fill="#4770F7"/>
<path d="M18.6678 7.56232H1.41116C1.09363 7.56232 0.835938 7.32557 0.835938 7.03385C0.835938 6.74213 1.09363 6.50537 1.41116 6.50537H18.6678C18.9853 6.50537 19.243 6.74213 19.243 7.03385C19.243 7.32557 18.9853 7.56232 18.6678 7.56232Z" fill="#4770F7"/>
<path d="M5.24709 5.09621C4.92957 5.09621 4.67188 4.85946 4.67188 4.56774V1.39688C4.67188 1.10516 4.92957 0.868408 5.24709 0.868408C5.56462 0.868408 5.82231 1.10516 5.82231 1.39688V4.56774C5.82231 4.85946 5.56462 5.09621 5.24709 5.09621Z" fill="#4770F7"/>
<path d="M14.833 5.09621C14.5155 5.09621 14.2578 4.85946 14.2578 4.56774V1.39688C14.2578 1.10516 14.5155 0.868408 14.833 0.868408C15.1506 0.868408 15.4083 1.10516 15.4083 1.39688V4.56774C15.4083 4.85946 15.1506 5.09621 14.833 5.09621Z" fill="#4770F7"/>
<path d="M5.69215 11.2455C5.58338 11.2455 5.47461 11.2225 5.37421 11.184C5.26544 11.1456 5.18178 11.0918 5.09811 11.0226C4.9475 10.8765 4.85547 10.6844 4.85547 10.4768C4.85547 10.3769 4.88057 10.277 4.9224 10.1847C4.96424 10.0925 5.02281 10.0079 5.09811 9.93105C5.18178 9.86187 5.26544 9.80806 5.37421 9.76963C5.67542 9.65432 6.05193 9.71582 6.2862 9.93105C6.4368 10.0771 6.52884 10.277 6.52884 10.4768C6.52884 10.5229 6.52047 10.5768 6.5121 10.6306C6.50373 10.6767 6.487 10.7228 6.4619 10.7689C6.44517 10.815 6.42007 10.8612 6.3866 10.9073C6.3615 10.9457 6.31966 10.9842 6.2862 11.0226C6.12723 11.161 5.90969 11.2455 5.69215 11.2455Z" fill="#4770F7"/>
<path d="M10.0867 11.2448C9.97791 11.2448 9.86915 11.2217 9.76874 11.1833C9.65997 11.1449 9.57631 11.091 9.49264 11.0219C9.34204 10.8758 9.25 10.6836 9.25 10.4761C9.25 10.3762 9.2751 10.2762 9.31693 10.184C9.35877 10.0917 9.41734 10.0072 9.49264 9.93032C9.57631 9.86114 9.65997 9.80733 9.76874 9.76889C10.0699 9.6459 10.4465 9.71508 10.6807 9.93032C10.8313 10.0764 10.9234 10.2762 10.9234 10.4761C10.9234 10.5222 10.915 10.576 10.9066 10.6298C10.8983 10.6759 10.8815 10.7221 10.8564 10.7682C10.8397 10.8143 10.8146 10.8604 10.7811 10.9066C10.756 10.945 10.7142 10.9834 10.6807 11.0219C10.5218 11.1602 10.3042 11.2448 10.0867 11.2448Z" fill="#4770F7"/>
<path d="M14.4773 11.2448C14.3685 11.2448 14.2598 11.2217 14.1594 11.1833C14.0506 11.1449 13.9669 11.091 13.8833 11.0219C13.8498 10.9834 13.8163 10.945 13.7829 10.9066C13.7494 10.8604 13.7243 10.8143 13.7076 10.7682C13.6825 10.7221 13.6657 10.6759 13.6574 10.6298C13.649 10.576 13.6406 10.5222 13.6406 10.4761C13.6406 10.2762 13.7327 10.0764 13.8833 9.93032C13.9669 9.86114 14.0506 9.80733 14.1594 9.76889C14.4689 9.6459 14.8371 9.71508 15.0714 9.93032C15.222 10.0764 15.314 10.2762 15.314 10.4761C15.314 10.5222 15.3056 10.576 15.2973 10.6298C15.2889 10.6759 15.2722 10.7221 15.2471 10.7682C15.2303 10.8143 15.2052 10.8604 15.1718 10.9066C15.1467 10.945 15.1048 10.9834 15.0714 11.0219C14.9124 11.1602 14.6948 11.2448 14.4773 11.2448Z" fill="#4770F7"/>
<path d="M5.69215 14.513C5.58338 14.513 5.47461 14.4901 5.37421 14.4516C5.27381 14.4132 5.18178 14.3593 5.09811 14.2901C4.9475 14.1441 4.85547 13.9442 4.85547 13.7444C4.85547 13.6444 4.88057 13.5445 4.9224 13.4523C4.96424 13.3523 5.02281 13.2678 5.09811 13.1987C5.40768 12.9142 5.97662 12.9142 6.2862 13.1987C6.4368 13.3447 6.52884 13.5445 6.52884 13.7444C6.52884 13.9442 6.4368 14.1441 6.2862 14.2901C6.12723 14.4285 5.90969 14.513 5.69215 14.513Z" fill="#4770F7"/>
<path d="M10.0867 14.513C9.86915 14.513 9.65161 14.4285 9.49264 14.2901C9.34204 14.1441 9.25 13.9442 9.25 13.7444C9.25 13.6444 9.2751 13.5445 9.31693 13.4523C9.35877 13.3523 9.41734 13.2678 9.49264 13.1987C9.80221 12.9142 10.3712 12.9142 10.6807 13.1987C10.756 13.2678 10.8146 13.3523 10.8564 13.4523C10.8983 13.5445 10.9234 13.6444 10.9234 13.7444C10.9234 13.9442 10.8313 14.1441 10.6807 14.2901C10.5218 14.4285 10.3042 14.513 10.0867 14.513Z" fill="#4770F7"/>
<path d="M14.4773 14.5114C14.2598 14.5114 14.0422 14.4269 13.8833 14.2885C13.808 14.2193 13.7494 14.1348 13.7076 14.0349C13.6657 13.9426 13.6406 13.8427 13.6406 13.7428C13.6406 13.6428 13.6657 13.5429 13.7076 13.4507C13.7494 13.3507 13.808 13.2662 13.8833 13.197C14.0757 13.0202 14.3685 12.9356 14.6363 12.9894C14.6948 12.9971 14.745 13.0125 14.7952 13.0356C14.8454 13.0509 14.8956 13.074 14.9459 13.1047C14.9877 13.1278 15.0295 13.1662 15.0714 13.197C15.222 13.343 15.314 13.5429 15.314 13.7428C15.314 13.9426 15.222 14.1425 15.0714 14.2885C14.9124 14.4269 14.6948 14.5114 14.4773 14.5114Z" fill="#4770F7"/>
</svg>
