<svg width="16" height="16" viewBox="0 0 16 16" fill="none" xmlns="http://www.w3.org/2000/svg">
<path d="M5.5553 14.4297C5.50166 14.4297 5.44896 14.4157 5.40241 14.389C5.35587 14.3624 5.3171 14.324 5.28995 14.2778C4.13982 12.3183 1.07505 8.14819 1.04422 8.10628C1.00043 8.04676 0.979527 7.97347 0.985324 7.89981C0.99112 7.82614 1.02323 7.75702 1.07579 7.70508L2.01788 6.77416C2.06907 6.72358 2.13636 6.69254 2.20805 6.68644C2.27975 6.68033 2.35132 6.69955 2.41032 6.74075L5.49115 8.89201C7.53939 6.26075 9.44284 4.44484 10.6939 3.37487C12.0962 2.17539 12.9878 1.63641 13.0251 1.61395C13.0729 1.58524 13.1276 1.57007 13.1834 1.57007H14.7075C14.7698 1.57006 14.8307 1.58901 14.8821 1.62441C14.9335 1.65981 14.9729 1.70998 14.9951 1.76828C15.0173 1.82658 15.0212 1.89024 15.0064 1.95084C14.9916 2.01144 14.9587 2.0661 14.9121 2.10758C12.6527 4.11988 10.3036 7.31721 8.73093 9.64499C7.0213 12.1753 5.83447 14.2536 5.82268 14.2743C5.79597 14.3212 5.75739 14.3602 5.71081 14.3875C5.66423 14.4148 5.6113 14.4293 5.55733 14.4297L5.5553 14.4297Z" fill="#4770F7"/>
</svg>
