<svg width="18" height="18" viewBox="0 0 18 18" fill="none" xmlns="http://www.w3.org/2000/svg">
<g clip-path="url(#clip0_1241_590)">
<path d="M9 0.5625C7.33122 0.5625 5.69992 1.05735 4.31238 1.98448C2.92484 2.9116 1.84338 4.22936 1.20477 5.77111C0.566156 7.31286 0.399065 9.00936 0.724628 10.6461C1.05019 12.2828 1.85378 13.7862 3.03379 14.9662C4.2138 16.1462 5.71722 16.9498 7.35393 17.2754C8.99065 17.6009 10.6871 17.4338 12.2289 16.7952C13.7706 16.1566 15.0884 15.0752 16.0155 13.6876C16.9427 12.3001 17.4375 10.6688 17.4375 9C17.4375 6.76224 16.5486 4.61612 14.9662 3.03379C13.3839 1.45145 11.2378 0.5625 9 0.5625ZM12.1838 12.1838C12.0891 12.2928 11.9562 12.3613 11.8125 12.375C11.6649 12.3744 11.5235 12.3158 11.4188 12.2119L8.60625 9.4275C8.54962 9.37214 8.50531 9.30544 8.47623 9.23177C8.44715 9.1581 8.43395 9.07912 8.4375 9V6.1875C8.4375 6.03832 8.49677 5.89524 8.60226 5.78975C8.70775 5.68426 8.85082 5.625 9 5.625C9.14919 5.625 9.29226 5.68426 9.39775 5.78975C9.50324 5.89524 9.56251 6.03832 9.56251 6.1875V8.76937L12.1838 11.3906C12.2885 11.496 12.3473 11.6386 12.3473 11.7872C12.3473 11.9358 12.2885 12.0784 12.1838 12.1838Z" fill="#F7CF47"/>
</g>
<defs>
<clipPath id="clip0_1241_590">
<rect width="18" height="18" fill="white"/>
</clipPath>
</defs>
</svg>
