<svg width="32" height="34" viewBox="0 0 32 34" fill="none" xmlns="http://www.w3.org/2000/svg">
<path fill-rule="evenodd" clip-rule="evenodd" d="M24.8589 17.1671C24.9761 17.7046 25.5068 18.0453 26.0443 17.9281C29.2262 17.2343 31.6094 14.4023 31.6094 11.0113C31.6094 6.54222 27.5641 3.30075 23.3344 4.03162C21.714 1.60254 18.9474 -0.000610352 15.8047 -0.000610352C12.662 -0.000610352 9.89543 1.60253 8.2751 4.03162C4.04535 3.30076 0 6.54221 0 11.0113C0 14.2856 2.21103 17.005 5.17788 17.8319C5.7078 17.9796 6.25714 17.6698 6.40484 17.1398C6.55255 16.6099 6.2427 16.0606 5.71277 15.9129C3.57734 15.3177 1.99219 13.3606 1.99219 11.0113C1.99219 7.61487 5.25046 5.19706 8.47946 6.1191C8.9257 6.24653 9.40081 6.04891 9.62505 5.6426C10.8275 3.46379 13.1448 1.99158 15.8047 1.99158C18.4647 1.99158 20.7819 3.46379 21.9845 5.64262C22.2087 6.04891 22.6838 6.24653 23.1301 6.1191C26.359 5.19707 29.6172 7.61486 29.6172 11.0113C29.6172 13.4459 27.906 15.4832 25.6199 15.9816C25.0824 16.0988 24.7417 16.6296 24.8589 17.1671Z" fill="#4770F7"/>
<path fill-rule="evenodd" clip-rule="evenodd" d="M4.84375 18.3945C4.84375 20.0404 6.18623 21.3828 7.83204 21.3828H23.7751C25.4209 21.3828 26.7634 20.0404 26.7634 18.3945V14.4101C26.7634 12.7643 25.4209 11.4219 23.7751 11.4219H7.83204C6.1862 11.4219 4.84375 12.7643 4.84375 14.4101V18.3945ZM7.83204 19.3906C7.28644 19.3906 6.83594 18.9401 6.83594 18.3945V14.4101C6.83594 13.8646 7.28646 13.414 7.83204 13.414H23.7751C24.3207 13.414 24.7712 13.8646 24.7712 14.4101V18.3945C24.7712 18.9401 24.3207 19.3906 23.7751 19.3906H7.83204Z" fill="#4770F7"/>
<path fill-rule="evenodd" clip-rule="evenodd" d="M8.83594 16.4023C8.83594 16.9525 9.2819 17.3984 9.83203 17.3984H13.8164C14.3665 17.3984 14.8125 16.9525 14.8125 16.4023C14.8125 15.8522 14.3665 15.4062 13.8164 15.4062H9.83203C9.2819 15.4062 8.83594 15.8522 8.83594 16.4023Z" fill="#4770F7"/>
<path fill-rule="evenodd" clip-rule="evenodd" d="M17.8008 17.3984C18.3494 17.3984 18.7969 16.951 18.7969 16.4023C18.7969 15.8538 18.3494 15.4062 17.8008 15.4062C17.2522 15.4062 16.8047 15.8538 16.8047 16.4023C16.8047 16.951 17.2522 17.3984 17.8008 17.3984Z" fill="#4770F7"/>
<path fill-rule="evenodd" clip-rule="evenodd" d="M21.7852 17.3984C22.3337 17.3984 22.7813 16.951 22.7813 16.4023C22.7813 15.8538 22.3337 15.4062 21.7852 15.4062C21.2365 15.4062 20.7891 15.8538 20.7891 16.4023C20.7891 16.951 21.2365 17.3984 21.7852 17.3984Z" fill="#4770F7"/>
<path fill-rule="evenodd" clip-rule="evenodd" d="M8.83594 24.3711C8.83594 24.9212 9.2819 25.3672 9.83203 25.3672H13.8164C14.3665 25.3672 14.8125 24.9212 14.8125 24.3711C14.8125 23.821 14.3665 23.375 13.8164 23.375H9.83203C9.2819 23.375 8.83594 23.821 8.83594 24.3711Z" fill="#4770F7"/>
<path fill-rule="evenodd" clip-rule="evenodd" d="M17.8008 25.3672C18.3494 25.3672 18.7969 24.9197 18.7969 24.3711C18.7969 23.8225 18.3494 23.375 17.8008 23.375C17.2522 23.375 16.8047 23.8225 16.8047 24.3711C16.8047 24.9197 17.2522 25.3672 17.8008 25.3672Z" fill="#4770F7"/>
<path fill-rule="evenodd" clip-rule="evenodd" d="M21.7852 25.3672C22.3337 25.3672 22.7813 24.9197 22.7813 24.3711C22.7813 23.8225 22.3337 23.375 21.7852 23.375C21.2365 23.375 20.7891 23.8225 20.7891 24.3711C20.7891 24.9197 21.2365 25.3672 21.7852 25.3672Z" fill="#4770F7"/>
<path fill-rule="evenodd" clip-rule="evenodd" d="M4.84375 26.3633C4.84375 28.0092 6.18623 29.3516 7.83204 29.3516H23.7751C25.4209 29.3516 26.7634 28.0092 26.7634 26.3633V22.3789C26.7634 20.7331 25.4209 19.3906 23.7751 19.3906H7.83204C6.1862 19.3906 4.84375 20.7331 4.84375 22.3789V26.3633ZM7.83204 27.3594C7.28644 27.3594 6.83594 26.9089 6.83594 26.3633V22.3789C6.83594 21.8333 7.28646 21.3828 7.83204 21.3828H23.7751C24.3207 21.3828 24.7712 21.8333 24.7712 22.3789V26.3633C24.7712 26.9089 24.3207 27.3594 23.7751 27.3594H7.83204Z" fill="#4770F7"/>
<path fill-rule="evenodd" clip-rule="evenodd" d="M15.8047 34C16.3548 34 16.8008 33.554 16.8008 33.0039V29.2188C16.8008 28.6687 16.3548 28.2227 15.8047 28.2227C15.2546 28.2227 14.8086 28.6687 14.8086 29.2188V33.0039C14.8086 33.554 15.2546 34 15.8047 34Z" fill="#4770F7"/>
<path fill-rule="evenodd" clip-rule="evenodd" d="M9.09766 33.0039C9.09766 33.554 9.54362 34 10.0938 34H21.5157C22.0658 34 22.5117 33.554 22.5117 33.0039C22.5117 32.4538 22.0658 32.0078 21.5157 32.0078H10.0938C9.54362 32.0078 9.09766 32.4538 9.09766 33.0039Z" fill="#4770F7"/>
</svg>
