<svg width="18" height="16" viewBox="0 0 18 16" fill="none" xmlns="http://www.w3.org/2000/svg">
<path d="M16.8768 11.9987C18.6162 9.55827 18.3503 6.21473 15.9745 4.03677C14.889 3.04167 13.5052 2.42218 12.0103 2.24918C12.001 2.23771 11.9914 2.22636 11.981 2.2155C10.6805 0.864617 8.8122 0.0898438 6.85505 0.0898438C3.13063 0.0898438 0 2.86483 0 6.41797C0 7.66373 0.386965 8.85795 1.12205 9.88933L0.095168 13.1134C0.0306211 13.316 0.0941133 13.5375 0.256148 13.6752C0.418465 13.8132 0.647438 13.8397 0.836613 13.7435L3.95944 12.1556C4.60076 12.4317 5.28082 12.6129 5.98507 12.6954C7.34358 14.124 9.22201 14.8555 11.1438 14.8555C12.1428 14.8555 13.1382 14.6519 14.0393 14.2649L17.1623 15.8529C17.2379 15.8913 17.3198 15.9102 17.4011 15.9102C17.757 15.9102 18.0122 15.5633 17.9037 15.2227L16.8768 11.9987ZM4.17227 11.0945C4.02458 11.0244 3.85277 11.0267 3.70705 11.1008L1.48282 12.2318L2.20915 9.95131C2.26202 9.78527 2.2295 9.60386 2.12221 9.46658C1.42379 8.57255 1.05462 7.51839 1.05462 6.41797C1.05462 3.5102 3.65667 1.14453 6.85505 1.14453C8.14303 1.14453 9.38296 1.53473 10.3887 2.2374C7.00151 2.57799 4.28878 5.22364 4.28878 8.52734C4.28878 9.55489 4.55217 10.5441 5.04875 11.4304C4.7481 11.3409 4.45528 11.2289 4.17227 11.0945ZM14.2918 13.2101C14.1482 13.1371 13.9763 13.1327 13.8266 13.2039C13.0045 13.5944 12.0768 13.8008 11.1438 13.8008C7.94545 13.8008 5.3434 11.4351 5.3434 8.52734C5.3434 5.61957 7.94545 3.25391 11.1438 3.25391C14.3422 3.25391 16.9443 5.61957 16.9443 8.52734C16.9443 9.62777 16.5751 10.6819 15.8766 11.5759C15.7694 11.7132 15.7369 11.8946 15.7897 12.0607L16.516 14.3411L14.2918 13.2101Z" fill="#4770F7"/>
</svg>
