<svg width="34" height="34" viewBox="0 0 34 34" fill="none" xmlns="http://www.w3.org/2000/svg">
<g clip-path="url(#clip0_525_442)">
<path d="M13.7465 4.81055H12.5589C12.0172 4.81055 11.5781 5.24969 11.5781 5.7913C11.5781 6.33291 12.0173 6.77205 12.5589 6.77205H13.7465C14.2881 6.77205 14.7272 6.33291 14.7272 5.7913C14.7272 5.24969 14.2882 4.81055 13.7465 4.81055Z" fill="#4770F7"/>
<path d="M17.9027 4.81055H16.7151C16.1735 4.81055 15.7344 5.24969 15.7344 5.7913C15.7344 6.33291 16.1735 6.77205 16.7151 6.77205H17.9027C18.4444 6.77205 18.8835 6.33291 18.8835 5.7913C18.8835 5.24969 18.4443 4.81055 17.9027 4.81055Z" fill="#4770F7"/>
<path d="M21.4651 3.62305C20.9235 3.62305 20.4844 4.06219 20.4844 4.6038V6.97902C20.4844 7.5207 20.9235 7.95977 21.4651 7.95977C22.0067 7.95977 22.4459 7.52063 22.4459 6.97902V4.6038C22.4459 4.06212 22.0068 3.62305 21.4651 3.62305Z" fill="#4770F7"/>
<path d="M25.0315 3.62305C24.4899 3.62305 24.0508 4.06219 24.0508 4.6038V6.97902C24.0508 7.5207 24.4899 7.95977 25.0315 7.95977C25.5732 7.95977 26.0123 7.52063 26.0123 6.97902V4.6038C26.0123 4.06212 25.5731 3.62305 25.0315 3.62305Z" fill="#4770F7"/>
<path d="M13.7465 13.125H12.5589C12.0172 13.125 11.5781 13.5641 11.5781 14.1058C11.5781 14.6474 12.0173 15.0865 12.5589 15.0865H13.7465C14.2881 15.0865 14.7272 14.6474 14.7272 14.1058C14.7272 13.5641 14.2882 13.125 13.7465 13.125Z" fill="#4770F7"/>
<path d="M17.9027 13.125H16.7151C16.1735 13.125 15.7344 13.5641 15.7344 14.1058C15.7344 14.6474 16.1735 15.0865 16.7151 15.0865H17.9027C18.4444 15.0865 18.8835 14.6474 18.8835 14.1058C18.8835 13.5641 18.4443 13.125 17.9027 13.125Z" fill="#4770F7"/>
<path d="M21.4651 11.9355C20.9235 11.9355 20.4844 12.3747 20.4844 12.9163V15.2915C20.4844 15.8333 20.9235 16.2723 21.4651 16.2723C22.0067 16.2723 22.4459 15.8331 22.4459 15.2915V12.9163C22.4459 12.3747 22.0068 11.9355 21.4651 11.9355Z" fill="#4770F7"/>
<path d="M25.0315 11.9355C24.4899 11.9355 24.0508 12.3747 24.0508 12.9163V15.2915C24.0508 15.8333 24.4899 16.2723 25.0315 16.2723C25.5732 16.2723 26.0123 15.8331 26.0123 15.2915V12.9163C26.0123 12.3747 25.5731 11.9355 25.0315 11.9355Z" fill="#4770F7"/>
<path d="M13.7465 21.4375H12.5589C12.0173 21.4375 11.5781 21.8766 11.5781 22.4183C11.5781 22.9599 12.0173 23.399 12.5589 23.399H13.7465C14.2882 23.399 14.7272 22.9599 14.7272 22.4183C14.7272 21.8766 14.2882 21.4375 13.7465 21.4375Z" fill="#4770F7"/>
<path d="M17.9027 21.4375H16.7151C16.1735 21.4375 15.7344 21.8766 15.7344 22.4183C15.7344 22.9599 16.1735 23.399 16.7151 23.399H17.9027C18.4444 23.399 18.8835 22.9599 18.8835 22.4183C18.8835 21.8766 18.4443 21.4375 17.9027 21.4375Z" fill="#4770F7"/>
<path d="M31.0577 21.3503V20.0429C31.0577 19.3645 30.8114 18.7428 30.4041 18.2615C30.8114 17.7802 31.0577 17.1586 31.0577 16.4801V11.7297C31.0577 11.0513 30.8114 10.4297 30.4041 9.94832C30.8114 9.467 31.0577 8.84538 31.0577 8.1669V3.41646C31.0577 1.89337 29.8186 0.654297 28.2955 0.654297H2.76217C1.23907 0.654297 0 1.89344 0 3.41646V8.16684C0 8.84524 0.246301 9.46694 0.65357 9.94825C0.246301 10.4296 0 11.0513 0 11.7297V16.48C0 17.1584 0.246301 17.7801 0.65357 18.2614C0.246301 18.7428 0 19.3645 0 20.0429V24.7932C0 26.3163 1.23907 27.5554 2.76217 27.5554H20.966C21.3381 30.81 24.1089 33.3466 27.4616 33.3466C31.067 33.3466 34.0001 30.4134 34.0001 26.8081C34 24.5304 32.8291 22.5213 31.0577 21.3503ZM1.96151 3.41646C1.96151 2.975 2.3207 2.6158 2.76217 2.6158H28.2955C28.737 2.6158 29.0962 2.97493 29.0962 3.41646V8.16684C29.0962 8.6083 28.737 8.9675 28.2955 8.9675H2.76217C2.3207 8.9675 1.96151 8.60837 1.96151 8.16684V3.41646ZM1.96151 11.7297C1.96151 11.2883 2.3207 10.929 2.76217 10.929H28.2955C28.737 10.929 29.0962 11.2881 29.0962 11.7297V16.48C29.0962 16.9214 28.737 17.2807 28.2955 17.2807H2.76217C2.3207 17.2807 1.96151 16.9215 1.96151 16.48V11.7297ZM21.272 24.6995C21.2659 24.7175 21.2601 24.7355 21.2541 24.7535C21.2349 24.8116 21.2164 24.8698 21.1989 24.9284C21.1856 24.9725 21.1727 25.0166 21.1604 25.0611C21.1538 25.0854 21.1471 25.1096 21.1407 25.1339C21.1006 25.2851 21.0659 25.4385 21.0366 25.5938H2.76217C2.3207 25.5938 1.96151 25.2346 1.96151 24.7932V20.0428C1.96151 19.6013 2.3207 19.2421 2.76217 19.2421H28.2955C28.737 19.2421 29.0962 19.6013 29.0962 20.0428V20.4765C28.7075 20.3762 28.3049 20.3111 27.892 20.2841C27.8806 20.2833 27.8691 20.2826 27.8576 20.282C27.805 20.2789 27.7523 20.2763 27.6993 20.2744C27.6845 20.2739 27.6697 20.2732 27.6549 20.2727C27.5906 20.2709 27.5262 20.2697 27.4614 20.2697C27.4066 20.2697 27.3519 20.2704 27.2972 20.2718C27.2816 20.2722 27.2661 20.273 27.2505 20.2735C27.2112 20.2748 27.1719 20.276 27.1328 20.278C27.1167 20.2788 27.1007 20.28 27.0846 20.2809C27.0455 20.2831 27.0066 20.2854 26.9677 20.2883C26.954 20.2894 26.9402 20.2906 26.9265 20.2918C26.885 20.2951 26.8435 20.2987 26.8021 20.3028C26.7917 20.3038 26.7813 20.305 26.7709 20.3061C26.7257 20.3109 26.6804 20.316 26.6355 20.3216C26.6296 20.3224 26.6238 20.3232 26.6179 20.324C26.5675 20.3304 26.5173 20.3375 26.4671 20.3451C26.4671 20.3451 26.4669 20.3451 26.4669 20.3451C25.1417 20.5471 23.9116 21.1508 22.9299 22.0953C22.1669 22.8295 21.6043 23.7215 21.272 24.6995ZM27.4615 31.385C24.9378 31.385 22.8846 29.3318 22.8846 26.8081C22.8846 26.7445 22.8868 26.6814 22.8894 26.6185C22.8895 26.6173 22.8897 26.6164 22.8898 26.6152C22.8929 26.539 22.8979 26.4634 22.9047 26.3882C22.9048 26.3874 22.9048 26.3866 22.9049 26.3859C22.9107 26.3227 22.9184 26.2601 22.9266 26.1977C22.9288 26.1815 22.9305 26.1651 22.9329 26.1489C22.9394 26.1033 22.9475 26.0582 22.9553 26.0131C22.9614 25.9789 22.9669 25.9445 22.9737 25.9106C22.9789 25.8842 22.985 25.8582 22.9906 25.8321C23.0023 25.7784 23.0141 25.7248 23.0277 25.6719C23.0293 25.6656 23.0311 25.6594 23.0327 25.6531C23.5252 23.7657 25.1953 22.3493 27.2077 22.2386C27.2144 22.2382 27.221 22.2375 27.2277 22.2371C27.3051 22.2332 27.3831 22.2311 27.4616 22.2311C27.5348 22.2311 27.6076 22.2333 27.68 22.2367C27.6891 22.2371 27.6982 22.2375 27.7073 22.238C30.1172 22.3661 32.0386 24.3668 32.0386 26.8081C32.0385 29.3318 29.9853 31.385 27.4615 31.385Z" fill="#4770F7"/>
<path d="M29.6861 24.7158C29.2529 24.3907 28.638 24.4786 28.313 24.9119L27.0051 26.6557L26.4958 26.1828C26.0988 25.8142 25.4782 25.8372 25.1097 26.2341C24.7412 26.631 24.7641 27.2517 25.161 27.6202L26.4687 28.8345C26.6509 29.0036 26.8896 29.0965 27.136 29.0965C27.1651 29.0965 27.1945 29.0952 27.2237 29.0926C27.5005 29.0678 27.7539 28.9266 27.9207 28.7042L29.8822 26.0888C30.2073 25.6555 30.1194 25.0407 29.6861 24.7158Z" fill="#4770F7"/>
</g>
<defs>
<clipPath id="clip0_525_442">
<rect width="34" height="34" fill="white"/>
</clipPath>
</defs>
</svg>
