<svg width="34" height="32" viewBox="0 0 34 32" fill="none" xmlns="http://www.w3.org/2000/svg">
<path fill-rule="evenodd" clip-rule="evenodd" d="M0 22.5078C0 24.1582 1.33793 25.4961 2.98828 25.4961H31.0117C32.6621 25.4961 34 24.1582 34 22.5078V3.11719C34 1.46684 32.6621 0.128908 31.0117 0.128908H2.98828C1.33793 0.128908 0 1.46684 0 3.11719V22.5078ZM2.98828 23.5039C2.43819 23.5039 1.99219 23.0579 1.99219 22.5078V3.11719C1.99219 2.5671 2.43819 2.1211 2.98828 2.1211H31.0117C31.5618 2.1211 32.0078 2.5671 32.0078 3.11719V22.5078C32.0078 23.0579 31.5618 23.5039 31.0117 23.5039H2.98828Z" fill="#4770F7"/>
<path fill-rule="evenodd" clip-rule="evenodd" d="M11.99 31.5189C12.1792 31.7423 12.4572 31.8711 12.75 31.8711H21.25C21.5428 31.8711 21.8208 31.7423 22.01 31.5189C22.1993 31.2954 22.2807 31.0001 22.2325 30.7112L21.17 24.3362C21.09 23.8559 20.6744 23.5039 20.1875 23.5039H13.8125C13.3256 23.5039 12.91 23.8559 12.83 24.3362L11.7675 30.7112C11.7193 31.0001 11.8007 31.2954 11.99 31.5189ZM13.9259 29.8789L14.6563 25.4961H19.3437L20.0742 29.8789H13.9259Z" fill="#4770F7"/>
<path fill-rule="evenodd" clip-rule="evenodd" d="M9.62891 30.875C9.62891 31.4251 10.0749 31.8711 10.625 31.8711H23.375C23.9251 31.8711 24.3711 31.4251 24.3711 30.875C24.3711 30.3249 23.9251 29.8789 23.375 29.8789H10.625C10.0749 29.8789 9.62891 30.3249 9.62891 30.875Z" fill="#4770F7"/>
<path fill-rule="evenodd" clip-rule="evenodd" d="M4.31641 18.125C4.31641 18.6751 4.76237 19.1211 5.3125 19.1211H13.8125C14.3626 19.1211 14.8086 18.6751 14.8086 18.125C14.8086 17.5749 14.3626 17.1289 13.8125 17.1289H6.30859V7.5C6.30859 6.94987 5.86263 6.50391 5.3125 6.50391C4.76237 6.50391 4.31641 6.94987 4.31641 7.5V18.125Z" fill="#4770F7"/>
<path fill-rule="evenodd" clip-rule="evenodd" d="M9.5625 19.1211C10.1126 19.1211 10.5586 18.6751 10.5586 18.125V10.6875C10.5586 10.1374 10.1126 9.69141 9.5625 9.69141C9.01237 9.69141 8.56641 10.1374 8.56641 10.6875V18.125C8.56641 18.6751 9.01237 19.1211 9.5625 19.1211Z" fill="#4770F7"/>
<path fill-rule="evenodd" clip-rule="evenodd" d="M13.8125 19.1211C14.3626 19.1211 14.8086 18.6751 14.8086 18.125V13.875C14.8086 13.3249 14.3626 12.8789 13.8125 12.8789C13.2624 12.8789 12.8164 13.3249 12.8164 13.875V18.125C12.8164 18.6751 13.2624 19.1211 13.8125 19.1211Z" fill="#4770F7"/>
<path fill-rule="evenodd" clip-rule="evenodd" d="M18.1289 12.8125C18.1289 16.0033 20.7155 18.5898 23.9062 18.5898C27.097 18.5898 29.6836 16.0033 29.6836 12.8125C29.6836 9.62173 27.097 7.03516 23.9062 7.03516C20.7155 7.03516 18.1289 9.62173 18.1289 12.8125ZM23.9062 16.5977C21.8157 16.5977 20.1211 14.903 20.1211 12.8125C20.1211 10.722 21.8157 9.02734 23.9062 9.02734C25.9968 9.02734 27.6914 10.722 27.6914 12.8125C27.6914 14.903 25.9968 16.5977 23.9062 16.5977Z" fill="#4770F7"/>
<path fill-rule="evenodd" clip-rule="evenodd" d="M22.9102 12.8125C22.9102 13.3626 23.3561 13.8086 23.9062 13.8086H28.6875C29.2376 13.8086 29.6836 13.3626 29.6836 12.8125C29.6836 12.2624 29.2376 11.8164 28.6875 11.8164H24.9023V8.03125C24.9023 7.48112 24.4564 7.03516 23.9062 7.03516C23.3561 7.03516 22.9102 7.48112 22.9102 8.03125V12.8125Z" fill="#4770F7"/>
<path fill-rule="evenodd" clip-rule="evenodd" d="M19.823 16.8977C20.212 17.2867 20.8427 17.2867 21.2317 16.8977L24.6124 13.517C25.0014 13.128 25.0014 12.4973 24.6124 12.1083C24.2234 11.7193 23.5927 11.7193 23.2037 12.1083L19.823 15.489C19.434 15.878 19.434 16.5087 19.823 16.8977Z" fill="#4770F7"/>
<path fill-rule="evenodd" clip-rule="evenodd" d="M17 4.24609C17.5501 4.24609 17.9961 3.80013 17.9961 3.25V1.125C17.9961 0.574873 17.5501 0.128907 17 0.128907C16.4499 0.128907 16.0039 0.574873 16.0039 1.125V3.25C16.0039 3.80013 16.4499 4.24609 17 4.24609Z" fill="#4770F7"/>
</svg>
