<svg width="18" height="18" viewBox="0 0 18 18" fill="none" xmlns="http://www.w3.org/2000/svg">
<path d="M8.99984 8.35312L17.2067 3.66188C17.0597 3.40496 16.8477 3.19124 16.592 3.04215C16.3363 2.89307 16.0458 2.81387 15.7498 2.8125H2.24984C1.95385 2.81387 1.66341 2.89307 1.4077 3.04215C1.15198 3.19124 0.93998 3.40496 0.792969 3.66188L8.99984 8.35312Z" fill="#F7CF47"/>
<path d="M9.28125 9.4893C9.19574 9.53867 9.09874 9.56466 9 9.56466C8.90126 9.56466 8.80426 9.53867 8.71875 9.4893L0.5625 4.82617V13.4999C0.5625 13.9475 0.74029 14.3767 1.05676 14.6932C1.37322 15.0096 1.80245 15.1874 2.25 15.1874H15.75C16.1976 15.1874 16.6268 15.0096 16.9432 14.6932C17.2597 14.3767 17.4375 13.9475 17.4375 13.4999V4.82617L9.28125 9.4893Z" fill="#F7CF47"/>
</svg>
