<svg width="18" height="18" viewBox="0 0 18 18" fill="none" xmlns="http://www.w3.org/2000/svg">
<g clip-path="url(#clip0_1112_625)">
<path d="M9.00131 4.37891C6.44906 4.37891 4.38281 6.44741 4.38281 8.99741C4.38281 11.5497 6.45131 13.6159 9.00131 13.6159C11.5536 13.6159 13.6198 11.5474 13.6198 8.99741C13.6198 6.44516 11.5513 4.37891 9.00131 4.37891ZM9.00131 11.9952C7.34456 11.9952 6.00356 10.6534 6.00356 8.99741C6.00356 7.34141 7.34531 5.99966 9.00131 5.99966C10.6573 5.99966 11.9991 7.34141 11.9991 8.99741C11.9998 10.6534 10.6581 11.9952 9.00131 11.9952Z" fill="#04144E"/>
<path d="M12.7112 0.05654C11.0552 -0.02071 6.95342 -0.01696 5.29592 0.05654C3.83942 0.12479 2.55467 0.47654 1.51892 1.51229C-0.21208 3.24329 0.00917045 5.57579 0.00917045 8.99654C0.00917045 12.4975 -0.18583 14.776 1.51892 16.4808C3.25667 18.2178 5.62292 17.9905 9.00317 17.9905C12.4712 17.9905 13.6682 17.9928 14.8944 17.518C16.5617 16.8708 17.8202 15.3805 17.9432 12.7038C18.0212 11.047 18.0167 6.94604 17.9432 5.28854C17.7947 2.12879 16.0989 0.21254 12.7112 0.05654ZM15.3324 15.3355C14.1977 16.4703 12.6234 16.369 8.98142 16.369C5.23142 16.369 3.72767 16.4245 2.63042 15.3243C1.36667 14.0665 1.59542 12.0468 1.59542 8.98454C1.59542 4.84079 1.17017 1.85654 5.32892 1.64354C6.28442 1.60979 6.56567 1.59854 8.97092 1.59854L9.00467 1.62104C13.0014 1.62104 16.1372 1.20254 16.3254 5.36054C16.3682 6.30929 16.3779 6.59429 16.3779 8.99579C16.3772 12.7023 16.4477 14.215 15.3324 15.3355Z" fill="#04144E"/>
<path d="M13.8058 5.27569C14.4019 5.27569 14.8851 4.79249 14.8851 4.19644C14.8851 3.60038 14.4019 3.11719 13.8058 3.11719C13.2098 3.11719 12.7266 3.60038 12.7266 4.19644C12.7266 4.79249 13.2098 5.27569 13.8058 5.27569Z" fill="#04144E"/>
</g>
<defs>
<clipPath id="clip0_1112_625">
<rect width="18" height="18" fill="white"/>
</clipPath>
</defs>
</svg>
