<svg width="34" height="32" viewBox="0 0 34 32" fill="none" xmlns="http://www.w3.org/2000/svg">
<path fill-rule="evenodd" clip-rule="evenodd" d="M0 22.3787C0 24.029 1.33793 25.3669 2.98828 25.3669H31.0117C32.6621 25.3669 34 24.029 34 22.3787V2.98804C34 1.33769 32.6621 -0.000244141 31.0117 -0.000244141H2.98828C1.33793 -0.000244141 0 1.33769 0 2.98804V22.3787ZM2.98828 23.3748C2.43819 23.3748 1.99219 22.9288 1.99219 22.3787V2.98804C1.99219 2.43795 2.43819 1.99194 2.98828 1.99194H31.0117C31.5618 1.99194 32.0078 2.43795 32.0078 2.98804V22.3787C32.0078 22.9288 31.5618 23.3748 31.0117 23.3748H2.98828Z" fill="#4770F7"/>
<path fill-rule="evenodd" clip-rule="evenodd" d="M11.99 31.3899C12.1792 31.6134 12.4572 31.7422 12.75 31.7422H21.25C21.5428 31.7422 21.8208 31.6134 22.01 31.3899C22.1993 31.1665 22.2807 30.8712 22.2325 30.5823L21.17 24.2073C21.09 23.727 20.6744 23.375 20.1875 23.375H13.8125C13.3256 23.375 12.91 23.727 12.83 24.2073L11.7675 30.5823C11.7193 30.8712 11.8007 31.1665 11.99 31.3899ZM13.9259 29.75L14.6563 25.3672H19.3437L20.0742 29.75H13.9259Z" fill="#4770F7"/>
<path fill-rule="evenodd" clip-rule="evenodd" d="M9.62891 30.7461C9.62891 31.2962 10.0749 31.7422 10.625 31.7422H23.375C23.9251 31.7422 24.3711 31.2962 24.3711 30.7461C24.3711 30.196 23.9251 29.75 23.375 29.75H10.625C10.0749 29.75 9.62891 30.196 9.62891 30.7461Z" fill="#4770F7"/>
<path fill-rule="evenodd" clip-rule="evenodd" d="M8.98118 4C9.46914 4 9.86471 4.39557 9.86471 4.88353V18.2326H26.5852C27.0731 18.2326 27.4687 18.6282 27.4687 19.1162C27.4687 19.6041 27.0731 19.9997 26.5852 19.9997H8.98118C8.49323 19.9997 8.09766 19.6041 8.09766 19.1162V4.88353C8.09766 4.39557 8.49323 4 8.98118 4Z" fill="#4770F7"/>
<path fill-rule="evenodd" clip-rule="evenodd" d="M18.6992 7.25462C18.6992 6.76666 19.0948 6.37109 19.5827 6.37109H23.0875C23.5754 6.37109 23.971 6.76666 23.971 7.25462V19.1159C23.971 19.6038 23.5754 19.9994 23.0875 19.9994C22.5995 19.9994 22.2039 19.6038 22.2039 19.1159V8.13815H20.4663V19.1159C20.4663 19.6038 20.0707 19.9994 19.5827 19.9994C19.0948 19.9994 18.6992 19.6038 18.6992 19.1159V7.25462Z" fill="#4770F7"/>
<path fill-rule="evenodd" clip-rule="evenodd" d="M15.1602 10.1997C15.1602 9.71173 15.5557 9.31616 16.0437 9.31616H19.5484C20.0364 9.31616 20.4319 9.71173 20.4319 10.1997C20.4319 10.6876 20.0364 11.0832 19.5484 11.0832H16.9272V19.1158C16.9272 19.6038 16.5316 19.9994 16.0437 19.9994C15.5557 19.9994 15.1602 19.6038 15.1602 19.1158V10.1997Z" fill="#4770F7"/>
<path fill-rule="evenodd" clip-rule="evenodd" d="M11.6289 13.1433C11.6289 12.6553 12.0245 12.2598 12.5124 12.2598H16.0172C16.5051 12.2598 16.9007 12.6553 16.9007 13.1433C16.9007 13.6313 16.5051 14.0268 16.0172 14.0268H13.396V19.1144C13.396 19.6023 13.0004 19.9979 12.5124 19.9979C12.0245 19.9979 11.6289 19.6023 11.6289 19.1144V13.1433Z" fill="#4770F7"/>
</svg>
