<svg width="34" height="32" viewBox="0 0 34 32" fill="none" xmlns="http://www.w3.org/2000/svg">
<path d="M1.74219 7.95408V7.70408H1.99219H32.0078H32.2578V7.95408V23.2182C32.2578 23.9305 31.6802 24.5109 30.9682 24.5109H3.03184C2.3198 24.5109 1.74219 23.9305 1.74219 23.2182V7.95408ZM22.1832 29.137L22.2979 29.4688H21.9469H12.0531H11.7021L11.8168 29.137L12.8426 26.1713L12.9008 26.003H13.0788H20.9212H21.0992L21.1574 26.1713L22.1832 29.137ZM32.2578 5.96189V6.21189H32.0078H1.99219H1.74219V5.96189V3.03477C1.74219 2.32248 2.31982 1.74219 3.03184 1.74219H30.9682C31.6802 1.74219 32.2578 2.32248 32.2578 3.03477V5.96189ZM10.9708 26.003H11.3218L11.2071 26.3348L10.1813 29.3005L10.1231 29.4688H9.94506H8.93961C8.52757 29.4688 8.19351 29.8028 8.19351 30.2148C8.19351 30.6269 8.52757 30.9609 8.93961 30.9609H25.0603C25.4724 30.9609 25.8064 30.6269 25.8064 30.2148C25.8064 29.8028 25.4724 29.4688 25.0603 29.4688H24.0549H23.8769L23.8187 29.3005L22.7928 26.3348L22.6781 26.003H23.0291H30.9682C32.5016 26.003 33.75 24.7538 33.75 23.2182V3.03477C33.75 1.49924 32.5016 0.250004 30.9682 0.250004H3.03184C1.49837 0.250004 0.25 1.49924 0.25 3.03477V23.2182C0.25 24.7538 1.49837 26.003 3.03184 26.003H10.9708Z" fill="#4770F7" stroke="#4770F7" stroke-width="0.5"/>
<path d="M4.1875 4.73242H5.67434C6.08637 4.73242 6.42043 4.39837 6.42043 3.98633C6.42043 3.57429 6.08637 3.24023 5.67434 3.24023H4.1875C3.77546 3.24023 3.44141 3.57429 3.44141 3.98633C3.44141 4.39837 3.77546 4.73242 4.1875 4.73242Z" fill="#4770F7" stroke="#4770F7" stroke-width="0.5"/>
<path d="M8.62891 4.73242H10.1157C10.5278 4.73242 10.8618 4.39837 10.8618 3.98633C10.8618 3.57429 10.5278 3.24023 10.1157 3.24023H8.62891C8.21687 3.24023 7.88281 3.57429 7.88281 3.98633C7.88281 4.39837 8.21687 4.73242 8.62891 4.73242Z" fill="#4770F7" stroke="#4770F7" stroke-width="0.5"/>
<path d="M13.0742 4.73242H14.5611C14.9731 4.73242 15.3071 4.39837 15.3071 3.98633C15.3071 3.57429 14.9731 3.24023 14.5611 3.24023H13.0742C12.6622 3.24023 12.3281 3.57429 12.3281 3.98633C12.3281 4.39837 12.6622 4.73242 13.0742 4.73242Z" fill="#4770F7" stroke="#4770F7" stroke-width="0.5"/>
<path d="M12.7944 19.0707C13.1696 19.4729 13.1476 20.1033 12.7453 20.4785C12.5534 20.6574 12.3094 20.746 12.0661 20.7461M12.7944 19.0707L7.93953 16.786L11.3375 20.4294C11.5336 20.6398 11.7995 20.7461 12.0661 20.7461M12.7944 19.0707L10.0301 16.1066M12.7944 19.0707L10.0301 16.1066M12.0661 20.7461V20.4961C12.2487 20.496 12.431 20.4297 12.5748 20.2956L12.5748 20.2956C12.8762 20.0146 12.8926 19.5424 12.6116 19.2412L12.6115 19.2412L9.84723 16.2771L9.68821 16.1066L9.84723 15.9361L12.6115 12.9721L12.6116 12.972C12.8926 12.6708 12.8762 12.1986 12.5748 11.9176C12.2735 11.6367 11.8013 11.6531 11.5203 11.9544C11.5203 11.9544 11.5203 11.9544 11.5203 11.9544L8.12235 15.5977L8.12235 15.5977C7.85504 15.8843 7.85506 16.3289 8.12234 16.6154L8.12235 16.6154L11.5203 20.2589L11.5203 20.2589C11.6672 20.4164 11.8659 20.4961 12.0661 20.4961L12.0661 20.7461ZM10.0301 16.1066L12.7944 13.1426M10.0301 16.1066L12.7944 13.1426M12.7944 13.1426C13.1696 12.7404 13.1476 12.11 12.7453 11.7348C12.343 11.3596 11.7127 11.3817 11.3375 11.7838L12.7944 13.1426Z" fill="#4770F7" stroke="#4770F7" stroke-width="0.5"/>
<path d="M18.3917 11.7559L18.3917 11.7559C18.0002 11.6277 17.5787 11.8412 17.4504 12.2328C17.4504 12.2328 17.4504 12.2328 17.4504 12.2328L15.0647 19.5195L15.0647 19.5195C14.9364 19.9111 15.15 20.3325 15.5415 20.4607L15.5416 20.4607C15.6191 20.4861 15.6972 20.498 15.7739 20.498C16.088 20.498 16.3799 20.298 16.4828 19.9838C16.4828 19.9838 16.4828 19.9838 16.4828 19.9838L18.8686 12.6971L19.0988 12.7725L18.8686 12.6971C18.9968 12.3055 18.7833 11.8841 18.3917 11.7559Z" fill="#4770F7" stroke="#4770F7" stroke-width="0.5"/>
<path d="M21.4247 11.9176L21.4248 11.9176C21.726 11.6366 22.1981 11.653 22.4793 11.9544L25.8772 15.5977C25.8772 15.5977 25.8772 15.5977 25.8772 15.5977C26.1444 15.8843 26.1444 16.3288 25.8772 16.6154L21.4247 11.9176ZM21.4247 11.9176C21.1234 12.1986 21.1069 12.6707 21.388 12.972L21.388 12.9721L24.1523 15.9361L24.3113 16.1066L24.1523 16.2771L21.388 19.2411L21.388 19.2411C21.1069 19.5424 21.1234 20.0145 21.4248 20.2957L21.4248 20.2957C21.5686 20.4298 21.7508 20.4961 21.9334 20.4961C22.1335 20.4961 22.3323 20.4164 22.4792 20.2588C22.4792 20.2588 22.4792 20.2588 22.4792 20.2588L25.8772 16.6155L21.4247 11.9176Z" fill="#4770F7" stroke="#4770F7" stroke-width="0.5"/>
</svg>
