<svg width="18" height="18" viewBox="0 0 18 18" fill="none" xmlns="http://www.w3.org/2000/svg">
<g clip-path="url(#clip0_1241_599)">
<path d="M16.0481 11.9867L13.3706 11.1374C13.0288 11.0276 12.6637 11.0125 12.314 11.0937C11.9644 11.1749 11.6433 11.3494 11.3849 11.5986L10.3218 12.6224C9.51981 12.1703 8.75769 11.651 8.04368 11.0699C7.62802 10.7378 7.25069 10.3605 6.91868 9.94486C6.33576 9.24091 5.81447 8.48814 5.36055 7.69486L6.3843 6.63736C6.63344 6.37779 6.80782 6.05573 6.88901 5.70522C6.9702 5.35472 6.95519 4.98878 6.84555 4.64611L6.01305 1.95736C5.86073 1.48073 5.53548 1.0784 5.10136 0.829584C4.66723 0.580768 4.15568 0.503496 3.66743 0.612983L2.54243 0.866108C2.21735 0.945304 1.9173 1.10469 1.66968 1.32971C1.42207 1.55472 1.23478 1.8382 1.12493 2.15423C-1.09132 8.20111 4.0668 13.0499 4.52805 13.4999C4.8768 13.8824 8.24055 17.4655 12.8081 17.4655C13.8478 17.4601 14.8782 17.2696 15.8512 16.903C16.1686 16.7898 16.4525 16.5986 16.6766 16.347C16.9007 16.0953 17.0579 15.7913 17.1337 15.463L17.3868 14.338C17.4968 13.8497 17.4205 13.338 17.1729 12.9031C16.9252 12.4681 16.5241 12.1413 16.0481 11.9867Z" fill="#F7CF47"/>
</g>
<defs>
<clipPath id="clip0_1241_599">
<rect width="18" height="18" fill="white"/>
</clipPath>
</defs>
</svg>
