<svg width="20" height="23" viewBox="0 0 20 23" fill="none" xmlns="http://www.w3.org/2000/svg">
<path fill-rule="evenodd" clip-rule="evenodd" d="M17.9423 9.56449L3.99497 1.09731C3.67247 0.901715 3.3067 0.798775 2.9344 0.798828C2.56211 0.798882 2.19637 0.901926 1.87392 1.09762C1.55147 1.29331 1.28365 1.57475 1.09735 1.9137C0.911046 2.25265 0.812821 2.63718 0.812535 3.02867V19.9647C0.810385 20.3567 0.907452 20.7423 1.09378 21.0818C1.2801 21.4213 1.54898 21.7026 1.87281 21.8968C2.19478 22.0946 2.56099 22.1988 2.93389 22.1988C3.30679 22.1988 3.67299 22.0946 3.99497 21.8968L17.9423 13.4287C18.2647 13.2328 18.5324 12.9511 18.7184 12.612C18.9045 12.2729 19.0025 11.8882 19.0025 11.4967C19.0025 11.1052 18.9045 10.7205 18.7184 10.3814C18.5324 10.0423 18.2647 9.76043 17.9423 9.56449Z" fill="#4770F7"/>
</svg>
