<svg width="50" height="50" viewBox="0 0 50 50" fill="none" xmlns="http://www.w3.org/2000/svg">
<g clip-path="url(#clip0_1117_722)">
<path d="M1.04614 21.0477C3.70173 11.5505 10.253 4.65625 16.621 4.65625C17.1325 4.65625 17.6435 4.70077 18.1413 4.7888C18.4236 4.83838 18.6705 5.00433 18.8233 5.24515C18.9756 5.48748 19.0186 5.78193 18.9412 6.05715L17.6303 10.7461C17.5039 11.1989 17.0672 11.505 16.6134 11.4842L16.5092 11.4822C14.1476 11.4822 9.83151 15.0216 7.63125 22.8883C7.54423 23.2004 7.46177 23.5197 7.38234 23.8525C9.85226 22.6302 12.7988 22.3474 15.467 23.0906C21.4865 24.7748 25.0128 31.0412 23.3301 37.0597C21.9661 41.9363 17.4801 45.3432 12.4208 45.3432C11.3903 45.3432 10.3612 45.201 9.36202 44.9213C5.39254 43.8118 2.40809 40.5162 0.958109 35.6436C-0.350718 31.2477 -0.317835 25.9279 1.04614 21.0477Z" fill="white"/>
<path d="M42.8727 4.65625C43.3832 4.65625 43.8947 4.69976 44.392 4.78779C44.6738 4.83636 44.9212 5.00331 45.0735 5.24413C45.2257 5.48647 45.2687 5.78092 45.1918 6.05614L43.8805 10.745C43.754 11.1978 43.3255 11.5039 42.8636 11.4832L42.7604 11.4812C40.3987 11.4812 36.0822 15.0206 33.8819 22.8872C33.7944 23.2014 33.7119 23.5206 33.633 23.8515C36.1039 22.6292 39.0494 22.3464 41.7177 23.0896C47.7361 24.7738 51.2634 31.0402 49.5797 37.0587C48.2158 41.9353 43.7297 45.3422 38.6705 45.3422C37.6399 45.3422 36.6109 45.2 35.6112 44.9202C31.6422 43.8107 28.6577 40.5151 27.2073 35.6426C25.8989 31.2466 25.9313 25.9263 27.2958 21.0457C29.9529 11.5495 36.5031 4.65625 42.8727 4.65625Z" fill="white"/>
</g>
<defs>
<clipPath id="clip0_1117_722">
<rect width="50" height="50" fill="white" transform="matrix(-1 0 0 1 50 0)"/>
</clipPath>
</defs>
</svg>
