<svg width="14" height="14" viewBox="0 0 14 14" fill="none" xmlns="http://www.w3.org/2000/svg">
<path d="M5.83333 4.08399V1.60366C5.83333 1.42808 5.72775 1.26941 5.56617 1.20058C5.40517 1.13233 5.21675 1.16674 5.09133 1.28983L0.133 6.10233C0.0478333 6.18458 0 6.29774 0 6.41616C0 6.53458 0.0478333 6.64774 0.133 6.72999L5.09133 11.5425C5.21792 11.665 5.40575 11.6994 5.56617 11.6317C5.72775 11.5629 5.83333 11.4042 5.83333 11.2287V8.74949H6.6605C9.36483 8.74949 11.858 10.2195 13.1664 12.5832L13.1787 12.6053C13.2568 12.7477 13.405 12.8328 13.5625 12.8328C13.5987 12.8328 13.6348 12.8287 13.671 12.8194C13.8647 12.7698 14 12.5954 14 12.3953C14 7.86049 10.3501 4.16216 5.83333 4.08399Z" fill="white"/>
</svg>
