<svg width="34" height="32" viewBox="0 0 34 32" fill="none" xmlns="http://www.w3.org/2000/svg">
<path fill-rule="evenodd" clip-rule="evenodd" d="M0 22.3789C0 24.0293 1.33793 25.3672 2.98828 25.3672H31.0117C32.6621 25.3672 34 24.0293 34 22.3789V2.98828C34 1.33794 32.6621 1.90735e-06 31.0117 1.90735e-06H2.98828C1.33793 1.90735e-06 0 1.33794 0 2.98828V22.3789ZM2.98828 23.375C2.43819 23.375 1.99219 22.929 1.99219 22.3789V2.98828C1.99219 2.43819 2.43819 1.99219 2.98828 1.99219H31.0117C31.5618 1.99219 32.0078 2.43819 32.0078 2.98828V22.3789C32.0078 22.929 31.5618 23.375 31.0117 23.375H2.98828Z" fill="#4770F7"/>
<path fill-rule="evenodd" clip-rule="evenodd" d="M11.99 31.3899C12.1792 31.6134 12.4572 31.7422 12.75 31.7422H21.25C21.5428 31.7422 21.8208 31.6134 22.01 31.3899C22.1993 31.1665 22.2807 30.8712 22.2325 30.5823L21.17 24.2073C21.09 23.727 20.6744 23.375 20.1875 23.375H13.8125C13.3256 23.375 12.91 23.727 12.83 24.2073L11.7675 30.5823C11.7193 30.8712 11.8007 31.1665 11.99 31.3899ZM13.9259 29.75L14.6563 25.3672H19.3437L20.0742 29.75H13.9259Z" fill="#4770F7"/>
<path fill-rule="evenodd" clip-rule="evenodd" d="M9.62891 30.7461C9.62891 31.2962 10.0749 31.7422 10.625 31.7422H23.375C23.9251 31.7422 24.3711 31.2962 24.3711 30.7461C24.3711 30.196 23.9251 29.75 23.375 29.75H10.625C10.0749 29.75 9.62891 30.196 9.62891 30.7461Z" fill="#4770F7"/>
<path fill-rule="evenodd" clip-rule="evenodd" d="M7.07058 6.29181C7.45963 6.68088 7.45961 7.31168 7.07054 7.70073L6.4052 8.36604L7.12036 9.08116C7.50943 9.47021 7.50944 10.101 7.12039 10.4901C6.73134 10.8791 6.10054 10.8792 5.71147 10.4901L4.29181 9.07051C4.10497 8.88367 4 8.63027 4 8.36604C4 8.1018 4.10497 7.8484 4.29181 7.66156L5.66166 6.29178C6.05073 5.90273 6.68152 5.90274 7.07058 6.29181Z" fill="#4770F7"/>
<path fill-rule="evenodd" clip-rule="evenodd" d="M9.63945 6.2918C10.0285 5.90273 10.6593 5.90273 11.0484 6.2918L12.468 7.71139C12.857 8.10045 12.857 8.73125 12.468 9.12031L11.0982 10.4901C10.7091 10.8791 10.0783 10.8791 9.68926 10.4901C9.3002 10.101 9.3002 9.47023 9.68926 9.08117L10.3546 8.41585L9.63945 7.70071C9.25039 7.31165 9.25039 6.68086 9.63945 6.2918Z" fill="#4770F7"/>
<path fill-rule="evenodd" clip-rule="evenodd" d="M4.04688 14.5841C4.04688 14.0339 4.49291 13.5879 5.04313 13.5879H7.93193C8.48215 13.5879 8.92818 14.0339 8.92818 14.5841C8.92818 15.1344 8.48215 15.5804 7.93193 15.5804H5.04313C4.49291 15.5804 4.04688 15.1344 4.04688 14.5841Z" fill="#4770F7"/>
<path fill-rule="evenodd" clip-rule="evenodd" d="M21.75 18.5744C21.75 18.0242 22.196 17.5781 22.7463 17.5781H28.8163C29.3665 17.5781 29.8125 18.0242 29.8125 18.5744C29.8125 19.1246 29.3665 19.5706 28.8163 19.5706H22.7463C22.196 19.5706 21.75 19.1246 21.75 18.5744Z" fill="#4770F7"/>
<path fill-rule="evenodd" clip-rule="evenodd" d="M4.04688 18.5744C4.04688 18.0242 4.49291 17.5781 5.04313 17.5781H19.0146C19.5648 17.5781 20.0108 18.0242 20.0108 18.5744C20.0108 19.1246 19.5648 19.5706 19.0146 19.5706H5.04313C4.49291 19.5706 4.04688 19.1246 4.04688 18.5744Z" fill="#4770F7"/>
<path fill-rule="evenodd" clip-rule="evenodd" d="M10.7695 14.5841C10.7695 14.0339 11.2156 13.5879 11.7658 13.5879H28.8184C29.3686 13.5879 29.8146 14.0339 29.8146 14.5841C29.8146 15.1344 29.3686 15.5804 28.8184 15.5804H11.7658C11.2156 15.5804 10.7695 15.1344 10.7695 14.5841Z" fill="#4770F7"/>
<path fill-rule="evenodd" clip-rule="evenodd" d="M14.6406 10.5939C14.6406 10.0437 15.0867 9.59766 15.6369 9.59766H28.8158C29.366 9.59766 29.812 10.0437 29.812 10.5939C29.812 11.1441 29.366 11.5902 28.8158 11.5902H15.6369C15.0867 11.5902 14.6406 11.1441 14.6406 10.5939Z" fill="#4770F7"/>
<path fill-rule="evenodd" clip-rule="evenodd" d="M21.4805 6.99625C21.4805 6.44604 21.9265 6 22.4767 6H28.8173C29.3676 6 29.8136 6.44604 29.8136 6.99625C29.8136 7.54647 29.3676 7.99251 28.8173 7.99251H22.4767C21.9265 7.99251 21.4805 7.54647 21.4805 6.99625Z" fill="#4770F7"/>
<path fill-rule="evenodd" clip-rule="evenodd" d="M14.6406 6.99625C14.6406 6.44604 15.0867 6 15.6369 6H18.8572C19.4074 6 19.8534 6.44604 19.8534 6.99625C19.8534 7.54647 19.4074 7.99251 18.8572 7.99251H15.6369C15.0867 7.99251 14.6406 7.54647 14.6406 6.99625Z" fill="#4770F7"/>
</svg>
