<svg width="16" height="18" viewBox="0 0 16 18" fill="none" xmlns="http://www.w3.org/2000/svg">
<path fill-rule="evenodd" clip-rule="evenodd" d="M8 0.9375C10.4833 0.9375 12.5 2.95425 12.5 5.4375C12.5 7.92075 10.4833 9.9375 8 9.9375C5.51675 9.9375 3.5 7.92075 3.5 5.4375C3.5 2.95425 5.51675 0.9375 8 0.9375ZM8 2.0625C6.137 2.0625 4.625 3.5745 4.625 5.4375C4.625 7.3005 6.137 8.8125 8 8.8125C9.863 8.8125 11.375 7.3005 11.375 5.4375C11.375 3.5745 9.863 2.0625 8 2.0625Z" fill="#4770F7"/>
<path fill-rule="evenodd" clip-rule="evenodd" d="M1.4375 16.5C1.4375 16.8105 1.1855 17.0625 0.875 17.0625C0.5645 17.0625 0.3125 16.8105 0.3125 16.5C0.3125 12.2573 3.75725 8.8125 8 8.8125C12.2428 8.8125 15.6875 12.2573 15.6875 16.5C15.6875 16.8105 15.4355 17.0625 15.125 17.0625C14.8145 17.0625 14.5625 16.8105 14.5625 16.5C14.5625 12.8783 11.6218 9.9375 8 9.9375C4.37825 9.9375 1.4375 12.8783 1.4375 16.5Z" fill="#4770F7"/>
</svg>
