<svg width="16" height="16" viewBox="0 0 16 16" fill="none" xmlns="http://www.w3.org/2000/svg">
<path d="M15.281 14.2179L13.1585 12.1029C14.3091 10.6814 14.8704 8.8726 14.7267 7.04943C14.5829 5.22626 13.745 3.52776 12.3858 2.30417C11.0266 1.08058 9.24969 0.425196 7.42149 0.473162C5.59329 0.521127 3.85319 1.26878 2.56001 2.56196C1.26683 3.85514 0.519174 5.59524 0.471209 7.42344C0.423243 9.25165 1.07863 11.0286 2.30222 12.3878C3.52581 13.747 5.22431 14.5848 7.04748 14.7286C8.87065 14.8724 10.6795 14.3111 12.101 13.1604L14.216 15.2829C14.2857 15.3532 14.3687 15.409 14.4601 15.4471C14.5514 15.4852 14.6495 15.5048 14.7485 15.5048C14.8475 15.5048 14.9455 15.4852 15.0369 15.4471C15.1283 15.409 15.2113 15.3532 15.281 15.2829C15.3513 15.2132 15.4071 15.1303 15.4452 15.0389C15.4832 14.9475 15.5028 14.8494 15.5028 14.7504C15.5028 14.6514 15.4832 14.5534 15.4452 14.462C15.4071 14.3706 15.3513 14.2877 15.281 14.2179ZM1.99848 7.62544C1.99848 6.51292 2.32838 5.42538 2.94647 4.50035C3.56455 3.57533 4.44305 2.85435 5.47089 2.42861C6.49872 2.00287 7.62972 1.89148 8.72087 2.10852C9.81201 2.32556 10.8143 2.86129 11.601 3.64796C12.3876 4.43463 12.9234 5.43691 13.1404 6.52805C13.3574 7.6192 13.246 8.7502 12.8203 9.77803C12.3946 10.8059 11.6736 11.6844 10.7486 12.3025C9.82354 12.9205 8.736 13.2504 7.62348 13.2504C6.13164 13.2504 4.7009 12.6578 3.64601 11.6029C2.59111 10.548 1.99848 9.11728 1.99848 7.62544Z" fill="white"/>
</svg>
