<svg width="50" height="42" viewBox="0 0 50 42" fill="none" xmlns="http://www.w3.org/2000/svg">
<path d="M1.04614 17.0477C3.70173 7.55049 10.253 0.65625 16.621 0.65625C17.1325 0.65625 17.6435 0.700771 18.1413 0.788802C18.4236 0.838382 18.6705 1.00433 18.8233 1.24515C18.9756 1.48748 19.0186 1.78193 18.9412 2.05715L17.6303 6.74606C17.5039 7.19887 17.0672 7.50495 16.6134 7.48421L16.5092 7.48218C14.1476 7.48218 9.83151 11.0216 7.63125 18.8883C7.54423 19.2004 7.46177 19.5197 7.38234 19.8525C9.85226 18.6302 12.7988 18.3474 15.467 19.0906C21.4865 20.7748 25.0128 27.0412 23.3301 33.0597C21.9661 37.9363 17.4801 41.3432 12.4208 41.3432C11.3903 41.3432 10.3612 41.201 9.36202 40.9213C5.39254 39.8118 2.40809 36.5162 0.958109 31.6436C-0.350718 27.2477 -0.317835 21.9279 1.04614 17.0477Z" fill="white"/>
<path d="M42.8727 0.65625C43.3832 0.65625 43.8947 0.699759 44.392 0.78779C44.6738 0.836359 44.9212 1.00331 45.0735 1.24413C45.2257 1.48647 45.2687 1.78092 45.1918 2.05614L43.8805 6.74505C43.754 7.19785 43.3255 7.50393 42.8636 7.48319L42.7604 7.48117C40.3987 7.48117 36.0822 11.0206 33.8819 18.8872C33.7944 19.2014 33.7119 19.5206 33.633 19.8515C36.1039 18.6292 39.0494 18.3464 41.7177 19.0896C47.7361 20.7738 51.2634 27.0402 49.5797 33.0587C48.2158 37.9353 43.7297 41.3422 38.6705 41.3422C37.6399 41.3422 36.6109 41.2 35.6112 40.9202C31.6422 39.8107 28.6577 36.5151 27.2073 31.6426C25.8989 27.2466 25.9313 21.9263 27.2958 17.0457C29.9529 7.54947 36.5031 0.65625 42.8727 0.65625Z" fill="white"/>
</svg>
